<svg width="118" height="64" viewBox="0 0 118 64" fill="none" xmlns="http://www.w3.org/2000/svg">
<g clip-path="url(#clip0_1_875)">
<path d="M29.4131 35.923C29.2081 35.923 29.1522 36.0418 29.0901 36.3669C28.879 37.561 28.5188 38.1737 27.7549 38.5425C26.991 38.9114 25.7489 38.9427 24.9788 38.9677C21.9232 39.0489 21.445 38.6238 21.4077 36.5857C21.3891 35.7292 21.445 33.0222 21.4574 32.0219L21.4822 29.7025C21.4822 29.5274 21.5133 29.4086 21.6686 29.4086C22.389 29.4086 25.339 29.4211 25.8979 29.4774C26.9848 29.5899 27.3947 30.0213 27.5313 30.5965C27.612 30.9716 27.612 31.3467 27.6369 31.6405C27.6369 31.7843 27.6928 31.8968 27.8977 31.8968C28.1586 31.8968 28.1648 31.578 28.1648 31.3467C28.1648 31.1466 28.2641 29.99 28.3014 29.4086C28.4318 27.9394 28.5498 27.4768 28.556 27.3018C28.556 27.1267 28.4691 27.0704 28.3573 27.0704C28.2145 27.0704 28.0902 27.2142 27.8853 27.4455C27.6182 27.7331 27.1773 27.8207 26.4755 27.8769C25.7986 27.9332 22.3766 27.9332 21.712 27.9394C21.5319 27.9394 21.5009 27.8207 21.5071 27.6143L21.5878 20.2122C21.5878 20.0059 21.6499 19.9183 21.799 19.9246C22.3952 19.9371 25.5191 20.0559 26.0159 20.1184C27.4816 20.3185 27.7673 20.6686 27.966 21.1875C28.1089 21.5376 28.1337 22.0252 28.1337 22.2253C28.1337 22.4816 28.1896 22.6254 28.3883 22.6316C28.5933 22.6316 28.6554 22.4628 28.6802 22.319C28.7423 21.9752 28.8107 20.7123 28.8417 20.4247C28.9411 19.1056 29.0901 18.768 29.0901 18.5679C29.0901 18.4242 29.0653 18.3116 28.9162 18.3054C28.7672 18.2991 28.5933 18.3804 28.4505 18.4117C28.2207 18.4617 27.7487 18.5117 27.1959 18.5554C26.637 18.5742 20.7246 18.4367 19.7557 18.4179C19.3334 18.4054 18.6316 18.3616 17.8367 18.3179C17.0728 18.2991 16.1785 18.2491 15.3462 18.2303C14.8805 18.2178 14.6631 18.2741 14.6631 18.4804C14.6631 18.6867 14.8432 18.7492 15.1848 18.7618C15.6195 18.768 16.1412 18.8118 16.3896 18.8743C17.4019 19.0994 17.6379 19.5807 17.6876 20.581C17.7373 21.5251 17.7249 22.3503 17.669 26.8391L17.6069 32.0531C17.5758 34.7852 17.5448 37.1359 17.3771 38.3863C17.2405 39.2553 17.079 39.9117 16.4579 40.0492C16.1785 40.118 15.8058 40.1868 15.34 40.1993C14.9674 40.2118 14.837 40.3056 14.837 40.4556C14.837 40.6682 15.0481 40.7494 15.458 40.7369C16.0791 40.7182 16.8865 40.6307 17.5945 40.6119C18.3335 40.5619 19.0042 40.5369 19.3458 40.5306C20.2588 40.5056 21.2028 40.5056 22.5008 40.5244C23.7926 40.5119 25.4259 40.5244 27.6431 40.4556C28.7548 40.4243 29.0156 40.4118 29.2268 39.6554C29.3758 39.074 29.6242 37.0984 29.6305 36.4357C29.6305 36.1481 29.6305 35.9168 29.4069 35.923H29.4131Z" fill="white"/>
<path d="M51.7398 34.5476C51.5349 34.5476 51.479 34.6602 51.3983 35.0978C51.2927 35.5917 50.9511 36.3919 50.5102 36.9233C49.4606 38.2112 48.0322 38.5301 45.6597 38.5926C42.0328 38.6926 37.0519 35.4854 37.0954 28.7522C37.1141 26.0139 37.6606 23.3444 39.6914 21.4938C40.9025 20.3997 42.4613 19.8183 44.8027 19.8683C47.2496 19.9184 49.2991 20.6936 50.1624 21.6626C50.8145 22.3816 51.1498 23.3319 51.1685 24.1758C51.1685 24.5572 51.2182 24.776 51.4231 24.776C51.6529 24.776 51.7088 24.5635 51.7336 24.1508C51.7833 23.6069 51.7647 22.119 51.8144 21.225C51.8703 20.281 51.9448 19.9559 51.9448 19.737C51.9448 19.5745 51.8392 19.437 51.5597 19.4057C50.7834 19.3057 49.9512 19.0431 48.9575 18.8868C47.7465 18.693 46.7714 18.5617 45.1194 18.5242C41.095 18.4304 38.4804 19.487 36.4682 21.3C33.7479 23.7507 33.1269 27.108 33.1083 29.046C33.0896 31.8156 33.8038 35.004 36.5551 37.3985C39.0766 39.5679 42.2377 40.3181 45.9392 40.1993C47.6471 40.143 49.6531 39.8867 50.7027 39.4178C51.1498 39.2115 51.2492 39.074 51.3858 38.6051C51.6467 37.6673 51.9634 35.2854 51.9634 34.954C51.9634 34.7352 51.9137 34.5476 51.7274 34.5539L51.7398 34.5476Z" fill="white"/>
<path d="M67.7569 35.054C67.5644 35.054 67.5209 35.2166 67.4961 35.4541C67.4526 35.9543 67.1669 36.692 66.875 37.0421C66.2788 37.7673 65.3348 37.8173 64.0492 37.8548C62.1426 37.9049 61.4967 37.7361 61.0806 37.3485C60.5589 36.8796 60.5589 35.0415 60.5589 31.628V26.9454C60.5589 22.913 60.5589 22.1753 60.6024 21.325C60.6521 20.3997 60.8508 19.9559 61.5091 19.8371C61.801 19.7933 62.1923 19.7746 62.4655 19.7808C62.7574 19.7871 62.9065 19.737 62.9065 19.5557C62.9065 19.3744 62.7326 19.3182 62.391 19.3057C61.4346 19.2869 59.6335 19.3244 59.0373 19.3057C58.3666 19.2932 56.7891 19.1744 55.6029 19.1494C55.2241 19.1431 55.0439 19.1869 55.0439 19.3807C55.0439 19.5745 55.193 19.6245 55.4725 19.6308C55.8016 19.637 56.1059 19.6683 56.3047 19.7308C57.1369 19.9371 57.3356 20.3685 57.3853 21.275C57.435 22.1315 57.435 22.8755 57.435 26.9391V31.6593C57.435 34.1288 57.435 36.2544 57.3046 37.3922C57.2052 38.1737 57.0748 38.7739 56.5717 38.8989C56.3419 38.9614 56.0376 39.0239 55.6588 39.0364C55.3545 39.0427 55.2489 39.1302 55.2489 39.2678C55.2489 39.4553 55.429 39.5366 55.7582 39.5241C56.2674 39.5116 56.9257 39.4366 57.5033 39.4178C58.1057 39.374 58.6585 39.3553 58.9379 39.349C59.9627 39.3178 60.857 39.3178 61.9687 39.3365C63.0742 39.3303 64.3411 39.3428 66.0863 39.2865C67.3346 39.249 67.4526 39.1115 67.5954 38.53C67.7817 37.7673 67.9494 35.798 67.9432 35.5104C67.9432 35.1916 67.9184 35.0603 67.7507 35.0665L67.7569 35.054Z" fill="white"/>
<path d="M86.7611 19.8496C85.7736 19.8246 84.5253 19.8746 83.6372 19.8496C83.0285 19.8371 81.6498 19.7308 80.4822 19.7058C80.1531 19.6995 79.9978 19.7433 79.9978 19.9183C79.9978 20.0934 80.1344 20.1434 80.3766 20.1496C80.6872 20.1559 81.0598 20.1872 81.2399 20.2434C81.9665 20.431 82.1467 20.8373 82.1963 21.6813C82.246 22.4816 82.2522 23.1818 82.2771 26.9766L82.3081 31.3842C82.3268 33.6911 82.3392 35.6792 82.2336 36.7358C82.1529 37.4672 82.0411 38.0236 81.6001 38.1424C81.4014 38.1987 81.1343 38.2549 80.8052 38.2675C80.5381 38.2737 80.4512 38.355 80.4512 38.48C80.4512 38.6551 80.6064 38.7301 80.8983 38.7176C81.7864 38.6926 83.1714 38.5738 83.6744 38.555C84.2396 38.5363 85.6121 38.5675 87.0281 38.5238C87.2641 38.5175 87.4318 38.4363 87.4318 38.2612C87.4318 38.1362 87.32 38.0674 87.0902 38.0736C86.7673 38.0862 86.2953 38.0486 85.991 38.0049C85.3389 37.9236 85.2084 37.3797 85.1401 36.6795C85.0221 35.6104 85.0097 33.6411 84.9911 31.3467L84.9165 21.4188C84.9165 21.1437 84.9786 20.9999 85.0842 20.9499C85.2768 20.8811 85.5997 20.8624 85.9227 20.8686C86.4133 20.8811 87.289 21.0437 88.0653 21.8689C89.2577 23.113 89.3384 24.751 89.3446 25.5575C89.3695 28.0582 87.7299 29.6149 86.5313 29.6212C86.0779 29.6212 85.9289 29.6962 85.9351 29.8963C85.9351 30.0713 86.0903 30.0963 86.1959 30.1151C86.3015 30.1401 86.5375 30.1401 86.6493 30.1338C89.6676 30.1151 91.8226 27.6581 91.7854 24.2071C91.773 22.9192 91.183 21.8189 90.7172 21.3C90.3756 20.9311 89.4254 19.8871 86.7735 19.8246L86.7611 19.8496Z" fill="white"/>
<path d="M99.7971 27.2643L99.2381 26.7641C97.5613 25.2512 97.0893 24.4134 97.0769 23.3131C97.0582 21.8814 97.9525 20.8686 99.4244 20.8999C100.71 20.9249 101.288 21.6439 101.586 22.1003C102.002 22.7192 102.114 23.4506 102.114 23.6632C102.114 23.9445 102.176 24.0883 102.312 24.0883C102.468 24.0883 102.524 23.9008 102.517 23.3819C102.492 21.5501 102.561 20.8686 102.561 20.5623C102.561 20.3998 102.461 20.3247 102.281 20.2747C101.772 20.0997 100.946 19.8433 99.6604 19.8121C96.8843 19.7496 95.046 21.6001 95.0709 24.2446C95.0895 26.1952 95.8844 27.8832 98.1264 29.9401L99.058 30.7966C100.722 32.3282 101.033 33.4161 101.045 34.5852C101.058 35.848 100.207 37.3235 98.4121 37.3797C97.1638 37.4172 95.959 36.7983 95.4932 35.0165C95.3876 34.6102 95.3007 34.1038 95.2944 33.7849C95.2944 33.5911 95.2696 33.3723 95.0833 33.3786C94.9218 33.3786 94.8597 33.6474 94.8473 34.01C94.8287 34.3976 94.7666 35.8543 94.779 37.1922C94.779 37.7236 94.8473 37.8486 95.1764 38.0049C96.0583 38.4363 96.9713 38.5801 98.1451 38.5426C99.2071 38.5113 100.319 38.255 101.3 37.4673C102.697 36.3107 103.107 34.6664 103.089 33.2973C103.058 31.0529 102.201 29.4274 99.7909 27.2768L99.7971 27.2643Z" fill="white"/>
<path d="M115.025 34.21C114.901 34.21 114.864 34.3038 114.833 34.5539C114.721 35.4916 114.51 35.9793 114.044 36.2669C113.572 36.5545 112.802 36.5732 112.324 36.592C110.43 36.642 110.125 36.3044 110.063 34.7039C110.032 34.035 110.02 31.9031 110.007 31.1154L109.982 29.2898C109.982 29.1523 109.995 29.0585 110.094 29.0585C110.541 29.0585 112.373 29.071 112.721 29.1148C113.398 29.2023 113.659 29.5462 113.758 30.0025C113.82 30.2964 113.82 30.5965 113.845 30.8278C113.845 30.9403 113.883 31.0341 114.013 31.0341C114.174 31.0341 114.174 30.784 114.168 30.5965C114.168 30.4339 114.206 29.5211 114.218 29.0648C114.274 27.9019 114.336 27.5393 114.336 27.4018C114.336 27.2642 114.28 27.2205 114.206 27.2205C114.112 27.2205 114.044 27.333 113.92 27.5143C113.758 27.7394 113.485 27.8081 113.05 27.8582C112.628 27.9019 110.504 27.9019 110.094 27.9019C109.982 27.9019 109.964 27.8081 109.958 27.6456L109.871 21.8189C109.871 21.6563 109.902 21.5876 110.001 21.5938C110.374 21.6001 112.311 21.6813 112.622 21.7376C113.535 21.8939 113.721 22.169 113.858 22.5754C113.951 22.8504 113.976 23.2381 113.982 23.3944C113.982 23.6007 114.025 23.7132 114.15 23.7132C114.28 23.7132 114.311 23.5757 114.33 23.4694C114.361 23.1943 114.379 22.2003 114.398 21.9752C114.435 20.9311 114.522 20.6623 114.522 20.506C114.522 20.3935 114.504 20.2997 114.41 20.2997C114.317 20.2997 114.212 20.3622 114.119 20.381C113.976 20.4247 113.684 20.4622 113.342 20.4998C112.994 20.5123 109.318 20.431 108.722 20.4185C108.461 20.4122 108.026 20.381 107.535 20.3435C107.063 20.331 106.511 20.2997 105.995 20.2872C105.71 20.2809 105.579 20.3247 105.579 20.4872C105.579 20.6498 105.697 20.6998 105.908 20.7061C106.175 20.7123 106.498 20.7436 106.654 20.7936C107.281 20.9686 107.436 21.3438 107.486 22.1315C107.535 22.8755 107.542 23.5256 107.591 27.0517L107.647 31.1466C107.678 33.291 107.703 35.1353 107.622 36.1168C107.554 36.7983 107.467 37.3109 107.088 37.4172C106.914 37.4672 106.691 37.5235 106.405 37.5297C106.175 37.536 106.101 37.611 106.101 37.7235C106.101 37.8861 106.237 37.9549 106.486 37.9486C106.865 37.9361 107.362 37.8736 107.802 37.8611C108.256 37.8236 108.672 37.8111 108.877 37.8048C109.442 37.7861 110.026 37.7923 110.827 37.8173C111.628 37.8173 112.64 37.8298 114.019 37.7861C114.709 37.7673 114.876 37.7611 114.994 37.1609C115.075 36.6982 115.199 35.1478 115.187 34.6226C115.181 34.3976 115.181 34.2163 115.032 34.2163L115.025 34.21Z" fill="white"/>
<path d="M77.1411 38.3862C76.7995 38.3988 76.3027 38.3612 75.9797 38.3175C75.2904 38.2362 75.1289 37.7798 75.0606 37.0859C74.9612 35.9855 74.955 33.9537 74.9426 31.4717L74.9239 26.9704C74.9053 23.0943 74.9053 22.3816 74.9426 21.5688C74.986 20.6811 75.1661 20.2497 75.781 20.1372C76.0543 20.0934 76.2344 20.0684 76.4579 20.0746C76.6815 20.0746 76.8182 20.0309 76.8182 19.8308C76.8182 19.6808 76.638 19.6245 76.3399 19.6182C75.4767 19.5995 74.129 19.6433 73.5576 19.6308C72.8869 19.6182 71.4274 19.5057 70.5455 19.487C70.1729 19.4807 69.9866 19.5245 69.9866 19.6808C69.9866 19.8871 70.1294 19.9433 70.3592 19.9496C70.6387 19.9558 70.943 19.9871 71.1976 20.0684C71.7069 20.2059 71.9429 20.6498 71.9926 21.5188C72.0423 22.344 72.0423 23.063 72.0609 26.9642L72.0795 31.503C72.0919 34.01 72.0982 36.0481 71.9864 37.1421C71.918 37.8924 71.7814 38.3425 71.3156 38.455C71.1045 38.5113 70.825 38.5738 70.471 38.5863C70.1853 38.5926 70.0922 38.6738 70.0922 38.8051C70.0922 38.9864 70.2598 39.0614 70.5642 39.0489C71.5019 39.0177 72.9676 38.8989 73.5017 38.8801C74.1228 38.8614 75.5698 38.8926 77.079 38.8489C77.3274 38.8426 77.5075 38.7614 77.5075 38.5801C77.5075 38.4488 77.3957 38.38 77.1473 38.3862H77.1411ZM74.1787 22.7754L73.4769 22.344L72.7627 22.7379L72.9055 21.8689L72.3342 21.2312L73.1291 21.1312L73.4893 20.3497L73.8371 21.1562L74.6258 21.3125L74.0545 21.9127L74.1849 22.7879L74.1787 22.7754Z" fill="white"/>
<path d="M36.2199 48.5205C35.4001 47.8328 35.189 46.8887 35.1952 46.0635C35.1952 45.4821 35.3815 44.4755 36.1951 43.6941C36.7975 43.1126 37.5925 42.7438 38.8284 42.6938C39.3376 42.675 39.6419 42.6938 40.0208 42.7313C40.3313 42.7625 40.5922 42.825 40.8406 42.8438C40.9337 42.8438 40.9648 42.8876 40.9648 42.9376C40.9648 43.0064 40.9399 43.1064 40.9213 43.4002C40.9027 43.6753 40.9089 44.1379 40.8903 44.3067C40.884 44.4318 40.8654 44.5005 40.7909 44.5068C40.7288 44.5068 40.7102 44.4443 40.7102 44.3255C40.7039 44.0692 40.5984 43.7753 40.3934 43.569C40.1264 43.2877 39.4867 43.0814 38.7228 43.1126C38.0024 43.1376 37.5304 43.344 37.1577 43.7003C36.5429 44.2942 36.3814 45.107 36.3752 45.926C36.3628 47.9453 37.8657 48.8706 38.9774 48.8143C39.7103 48.7768 40.1574 48.6705 40.4866 48.2641C40.6294 48.0953 40.735 47.8453 40.766 47.6952C40.7909 47.5577 40.8095 47.5264 40.8716 47.5202C40.9275 47.5202 40.9461 47.5764 40.9461 47.6452C40.9461 47.7452 40.8406 48.483 40.7598 48.7705C40.7164 48.9143 40.6853 48.9581 40.5487 49.0269C40.2195 49.1769 39.5923 49.2707 39.0644 49.3019C37.934 49.3645 36.9776 49.1582 36.2199 48.5267V48.5205Z" fill="white"/>
<path d="M42.9522 45.8072C42.9584 44.3817 43.8775 42.4999 46.281 42.4124C48.2498 42.3374 49.4608 43.4815 49.4546 45.3633C49.4546 47.2451 48.1876 48.8018 46.1754 48.9081C43.8775 49.0331 42.946 47.2888 42.9522 45.8072ZM48.3553 45.7134C48.3615 43.8691 47.3492 42.7625 46.045 42.8125C45.1259 42.85 44.0763 43.419 44.0639 45.4946C44.0576 47.2263 44.9768 48.5517 46.5046 48.4704C47.0635 48.4454 48.3429 48.0953 48.3491 45.7134H48.3553Z" fill="white"/>
<path d="M52.1686 44.6693C52.1686 43.4314 52.1687 43.2064 52.1562 42.9438C52.1438 42.6687 52.0817 42.5374 51.8271 42.4937C51.765 42.4812 51.6345 42.4749 51.5228 42.4812C51.4358 42.4812 51.3923 42.4687 51.3923 42.4124C51.3923 42.3561 51.4482 42.3374 51.56 42.3311C51.9699 42.3186 52.4543 42.3186 52.6158 42.3186C52.8767 42.3061 53.4604 42.2624 53.6964 42.2561C54.1809 42.2373 54.6901 42.2686 55.1 42.5499C55.3112 42.6937 55.6155 43.0939 55.6155 43.6378C55.6155 44.2317 55.3795 44.7943 54.6094 45.4946C55.2863 46.3698 55.808 47.0638 56.2552 47.5389C56.6775 47.9828 56.988 48.0265 57.0998 48.0453C57.1805 48.0578 57.2489 48.0641 57.311 48.0578C57.3731 48.0578 57.4041 48.0766 57.4041 48.1141C57.4041 48.1766 57.3544 48.1953 57.2613 48.2016L56.5471 48.2391C56.1248 48.2641 55.9322 48.2329 55.7397 48.1266C55.4105 47.9578 55.1249 47.5952 54.7025 46.9887C54.3982 46.5574 54.0504 46.0197 53.9511 45.9072C53.9138 45.8634 53.8703 45.8572 53.8144 45.8572L53.1499 45.8697C53.1127 45.8697 53.0878 45.8884 53.0878 45.9384V46.051C53.0878 46.8074 53.0878 47.4514 53.1251 47.789C53.1499 48.0265 53.1934 48.2016 53.4232 48.2204C53.5412 48.2329 53.7089 48.2391 53.7958 48.2329C53.8579 48.2329 53.889 48.2516 53.889 48.2954C53.889 48.3516 53.8331 48.3766 53.7337 48.3829C53.2865 48.4079 52.7214 48.4142 52.6034 48.4204C52.4543 48.4267 51.9699 48.4767 51.6594 48.4954C51.56 48.4954 51.5041 48.4767 51.5041 48.4204C51.5041 48.3829 51.5352 48.3516 51.6283 48.3516C51.7463 48.3454 51.8395 48.3266 51.9078 48.3016C52.0631 48.2641 52.1003 48.0766 52.1314 47.839C52.1687 47.4951 52.1749 46.8512 52.1749 46.101V44.6631L52.1686 44.6693ZM53.0754 45.2695C53.0754 45.357 53.0878 45.3883 53.1437 45.4133C53.3052 45.4633 53.535 45.4758 53.7275 45.4695C54.0318 45.457 54.1312 45.4195 54.2678 45.307C54.4976 45.1194 54.7212 44.7381 54.7212 44.0691C54.7212 42.9188 54.007 42.6187 53.5536 42.6312C53.3611 42.6375 53.2244 42.65 53.1499 42.6812C53.094 42.7 53.0816 42.7312 53.0816 42.8V45.2695H53.0754Z" fill="white"/>
<path d="M58.9504 44.3692C58.9504 43.1501 58.9504 42.9313 58.938 42.675C58.9256 42.4062 58.8635 42.2811 58.6151 42.2311C58.5592 42.2186 58.4288 42.2123 58.3232 42.2186C58.2425 42.2186 58.199 42.2061 58.199 42.1498C58.199 42.0936 58.2487 42.0748 58.3604 42.0748C58.7579 42.0623 59.2237 42.0686 59.4349 42.0561C59.7392 42.0435 60.1677 42.006 60.5093 41.9935C61.4284 41.956 61.7576 42.2811 61.8756 42.3937C62.0371 42.5562 62.242 42.9001 62.242 43.3252C62.242 44.4505 61.4843 45.282 60.4348 45.332C60.3975 45.332 60.3168 45.332 60.2795 45.332C60.2422 45.3258 60.1926 45.3195 60.1926 45.2632C60.1926 45.2007 60.2422 45.1695 60.3975 45.1632C60.8074 45.1445 61.385 44.6193 61.385 43.8066C61.385 43.544 61.3601 43.0126 60.9502 42.6312C60.6832 42.3812 60.3851 42.3436 60.2112 42.3499C60.0994 42.3499 59.9876 42.3686 59.9193 42.3937C59.882 42.4124 59.8634 42.4562 59.8634 42.5499V45.7446C59.8634 46.4823 59.8634 47.1138 59.9007 47.4514C59.9255 47.6765 59.969 47.8452 60.1926 47.8703C60.2981 47.8828 60.4596 47.889 60.5714 47.8828C60.6521 47.8828 60.6894 47.9015 60.6894 47.939C60.6894 47.9953 60.6335 48.0203 60.5466 48.0266C60.0559 48.0516 59.5901 48.0516 59.3976 48.0641C59.2237 48.0703 58.7579 48.1203 58.4598 48.1391C58.3604 48.1391 58.3108 48.1203 58.3108 48.0703C58.3108 48.0328 58.3418 48.0078 58.4288 48.0015C58.5406 47.9953 58.6275 47.9765 58.6958 47.9578C58.8449 47.9203 58.8821 47.739 58.9132 47.5076C58.9504 47.1701 58.9504 46.5324 58.9504 45.8009V44.388V44.3692Z" fill="white"/>
<path d="M63.9873 44.8444C63.9873 43.494 64.8009 41.7184 66.9497 41.6372C68.7135 41.5684 69.8128 42.6562 69.819 44.438C69.819 46.2198 68.7011 47.6889 66.8938 47.789C64.8319 47.9015 63.9873 46.2448 63.9873 44.8444ZM68.8315 44.7693C68.8315 43.0251 67.9124 41.9748 66.7448 42.0185C65.9188 42.0498 64.981 42.5875 64.9872 44.5505C64.9872 46.1885 65.8194 47.4514 67.1981 47.3764C67.695 47.3513 68.8439 47.02 68.8377 44.7693H68.8315Z" fill="white"/>
<path d="M72.2534 43.7816C72.2534 42.6062 72.2534 42.3937 72.2348 42.1436C72.2224 41.881 72.1665 41.7622 71.9367 41.7185C71.8808 41.7059 71.7628 41.6997 71.6634 41.7059C71.5889 41.7059 71.5454 41.6934 71.5454 41.6434C71.5454 41.5872 71.5951 41.5747 71.7007 41.5684C72.0671 41.5559 72.508 41.5622 72.6509 41.5559C72.8869 41.5497 73.4086 41.5059 73.6259 41.4934C74.0607 41.4746 74.5203 41.5059 74.8867 41.7747C75.0792 41.9123 75.3525 42.2936 75.3587 42.8063C75.3587 43.3752 75.1537 43.9003 74.4644 44.563C75.0792 45.3945 75.5512 46.051 75.9549 46.5074C76.3399 46.9325 76.6132 46.97 76.7188 46.9887C76.7933 47.0013 76.8554 47.0012 76.9113 47.0012C76.9672 47.0012 76.992 47.02 76.992 47.0575C76.992 47.12 76.9486 47.1388 76.8616 47.1388L76.2157 47.1763C75.8369 47.1951 75.663 47.17 75.4891 47.07C75.1972 46.9075 74.9364 46.5636 74.5451 45.9884C74.2656 45.5821 73.9489 45.0694 73.8619 44.9631C73.8247 44.9194 73.7874 44.9131 73.7377 44.9131L73.1415 44.9256C73.1043 44.9256 73.0856 44.9444 73.0856 44.9882V45.0944C73.0856 45.8134 73.0856 46.4198 73.1291 46.7449C73.1477 46.97 73.1912 47.1325 73.4024 47.1575C73.5079 47.17 73.657 47.1763 73.7377 47.17C73.7936 47.17 73.8185 47.1888 73.8185 47.2263C73.8185 47.2826 73.7688 47.3076 73.6818 47.3076C73.2844 47.3263 72.7689 47.3326 72.6695 47.3388C72.5391 47.3451 72.0981 47.3951 71.8249 47.4076C71.7317 47.4076 71.6883 47.3951 71.6883 47.3388C71.6883 47.3013 71.7131 47.2763 71.8 47.2701C71.9056 47.2701 71.9864 47.2451 72.0485 47.2263C72.1851 47.1888 72.2224 47.0137 72.2472 46.7887C72.2783 46.4636 72.2783 45.8509 72.2783 45.1382V43.7753L72.2534 43.7816ZM73.0732 44.3567C73.0732 44.438 73.0856 44.4693 73.1353 44.4943C73.2782 44.5443 73.4893 44.5568 73.657 44.5443C73.9303 44.5318 74.0234 44.4943 74.1414 44.388C74.3464 44.2129 74.5451 43.8503 74.5389 43.2189C74.5389 42.1311 73.8868 41.8372 73.4831 41.856C73.3092 41.8622 73.185 41.8747 73.1167 41.8998C73.067 41.9185 73.0546 41.9498 73.0546 42.0123L73.067 44.3567H73.0732Z" fill="white"/>
<path d="M78.6254 45.1069C78.5944 45.1069 78.5819 45.1257 78.5633 45.1695L78.2093 46.226C78.141 46.4198 78.1099 46.6011 78.1099 46.6949C78.1099 46.8325 78.172 46.9262 78.3832 46.9137H78.4826C78.5633 46.9075 78.5819 46.9137 78.5819 46.9637C78.5819 47.0263 78.5447 47.0388 78.4701 47.045C78.259 47.0575 77.9671 47.045 77.7559 47.0575C77.6814 47.0575 77.3088 47.1013 76.961 47.12C76.874 47.12 76.8306 47.1138 76.8306 47.0513C76.8306 47.0075 76.8554 46.9887 76.9113 46.9887C76.9734 46.9887 77.0666 46.97 77.1225 46.9637C77.433 46.9012 77.5572 46.6324 77.6938 46.2448L79.3458 41.4621C79.4266 41.2371 79.4638 41.1558 79.5321 41.1495C79.5942 41.1495 79.6315 41.2121 79.6998 41.3871C79.8613 41.7935 80.9419 44.7693 81.3705 45.8947C81.6251 46.5574 81.8176 46.6574 81.9543 46.6887C82.0536 46.7074 82.153 46.7074 82.2337 46.7012C82.2834 46.7012 82.3207 46.7012 82.3207 46.7574C82.3207 46.8199 82.2648 46.8325 82.0164 46.8512C81.7804 46.8637 81.2959 46.8887 80.768 46.9012C80.65 46.9012 80.5693 46.9012 80.5693 46.8512C80.5693 46.8074 80.5941 46.7887 80.6625 46.7762C80.7059 46.7574 80.7556 46.6887 80.7184 46.6011L80.178 45.0694C80.1656 45.0319 80.147 45.0194 80.1097 45.0194L78.6192 45.0944L78.6254 45.1069ZM79.9855 44.6631C80.0166 44.6631 80.0228 44.6381 80.0166 44.6193L79.4079 42.7875C79.4079 42.7875 79.3955 42.7187 79.3769 42.7187C79.3582 42.7187 79.3458 42.7563 79.3396 42.7875L78.7372 44.6693C78.7372 44.6693 78.7372 44.7193 78.762 44.7193L79.9855 44.6631Z" fill="white"/>
<path d="M84.3143 41.5059L83.3454 41.5747C82.9666 41.6059 82.8113 41.6497 82.7119 41.8185C82.6498 41.931 82.6126 42.0248 82.6002 42.0873C82.5877 42.1498 82.5691 42.1811 82.5318 42.1811C82.4884 42.1811 82.4759 42.1436 82.4697 42.0623C82.4697 41.9435 82.5877 41.2558 82.6002 41.1933C82.6188 41.0933 82.6374 41.0495 82.6747 41.0495C82.7244 41.0495 82.7927 41.1183 82.9542 41.1308C83.1405 41.1433 83.3889 41.1495 83.6063 41.1433L86.165 41.0433C86.3699 41.037 86.5128 41.0058 86.6059 40.987C86.6991 40.962 86.755 40.9432 86.7798 40.9432C86.8233 40.9432 86.8295 40.987 86.8295 41.0995C86.8295 41.2558 86.8171 41.7685 86.8171 41.9623C86.8109 42.0373 86.7985 42.0811 86.7612 42.0811C86.7115 42.0811 86.6991 42.0498 86.6929 41.9373V41.856C86.6743 41.6622 86.4942 41.4621 85.929 41.4684H85.1154L85.1403 44.5318C85.1403 45.2195 85.1527 45.8072 85.1837 46.126C85.2024 46.3323 85.2458 46.4949 85.4384 46.5136C85.5315 46.5261 85.6682 46.5324 85.7675 46.5261C85.8358 46.5261 85.8731 46.5449 85.8731 46.5824C85.8731 46.6324 85.8234 46.6574 85.7489 46.6637C85.3266 46.6887 84.9167 46.6887 84.7366 46.6949C84.5875 46.7012 84.1776 46.7449 83.9168 46.7637C83.8298 46.7637 83.7864 46.7512 83.7864 46.6949C83.7864 46.6574 83.8112 46.6324 83.8919 46.6324C83.9913 46.6324 84.0658 46.6074 84.1279 46.5886C84.2584 46.5511 84.2956 46.3886 84.3143 46.1698C84.3453 45.8509 84.3391 45.2633 84.3329 44.5756L84.308 41.5122L84.3143 41.5059Z" fill="white"/>
<path d="M88.9162 43.0501C88.9038 41.931 88.9038 41.7247 88.8914 41.4871C88.8789 41.2371 88.8106 41.112 88.674 41.0808C88.6057 41.062 88.5249 41.0558 88.4442 41.062C88.3821 41.062 88.3448 41.0495 88.3386 40.9932C88.3386 40.9495 88.3883 40.9307 88.4877 40.9307C88.7299 40.9245 89.1274 40.9307 89.3075 40.9245C89.4627 40.9182 89.8354 40.8807 90.0714 40.8745C90.1521 40.8745 90.2018 40.887 90.2018 40.9307C90.2018 40.987 90.1645 41.0057 90.1024 41.0057C90.0403 41.0057 89.9906 41.0182 89.9161 41.037C89.7484 41.0808 89.6987 41.2058 89.6863 41.4621C89.6739 41.6997 89.6801 41.906 89.6863 43.0188L89.6987 44.313C89.7049 45.0257 89.7111 45.6071 89.736 45.9259C89.7546 46.126 89.8043 46.2573 89.9906 46.276C90.0776 46.2885 90.2142 46.2948 90.3136 46.2885C90.3819 46.2885 90.4129 46.3073 90.4129 46.3386C90.4129 46.3886 90.3633 46.4136 90.2949 46.4198C89.8788 46.4448 89.4814 46.4386 89.3137 46.4511C89.1708 46.4573 88.7734 46.5011 88.5187 46.5136C88.438 46.5136 88.3945 46.5011 88.3883 46.4448C88.3883 46.4073 88.4131 46.3823 88.4877 46.3823C88.5808 46.3823 88.6616 46.3573 88.7175 46.3386C88.8417 46.301 88.8789 46.176 88.8976 45.9572C88.9286 45.6446 88.9224 45.0632 88.9162 44.3505L88.9038 43.0501H88.9162Z" fill="white"/>
<path d="M91.8786 43.5628C91.8662 42.3124 92.5493 40.6744 94.3938 40.6056C95.9092 40.5494 96.8532 41.5559 96.8718 43.2064C96.8905 44.8569 95.9403 46.2135 94.3876 46.2948C92.6238 46.3948 91.891 44.8569 91.8786 43.5628ZM96.0334 43.5127C96.0148 41.8998 95.2198 40.9245 94.22 40.962C93.5182 40.987 92.7108 41.4871 92.7294 43.3002C92.7418 44.8194 93.4685 45.9822 94.6423 45.9197C95.0708 45.9009 96.0521 45.6008 96.0272 43.5127H96.0334Z" fill="white"/>
<path d="M99.3189 44.9569C99.3376 45.5133 99.4183 45.6946 99.5363 45.7384C99.6357 45.7759 99.7475 45.7759 99.8468 45.7697C99.9089 45.7697 99.9462 45.7759 99.9462 45.8197C99.9462 45.8759 99.8965 45.8947 99.8096 45.9009C99.4245 45.9197 99.1823 45.9134 99.0705 45.9197C99.0146 45.9197 98.7351 45.9572 98.4246 45.976C98.3501 45.976 98.2942 45.976 98.2942 45.9135C98.2942 45.8697 98.3314 45.8572 98.3873 45.8509C98.4619 45.8509 98.5737 45.8322 98.6544 45.8009C98.8097 45.7384 98.8283 45.5258 98.8283 44.9007V40.6807C98.8283 40.5369 98.8469 40.4368 98.909 40.4368C98.9711 40.4368 99.027 40.5244 99.1326 40.6494C99.2071 40.7369 100.12 41.8435 100.996 42.8375C101.399 43.3002 102.207 44.288 102.306 44.3943H102.337L102.238 41.2121C102.225 40.7807 102.176 40.6494 102.033 40.5806C101.946 40.5431 101.803 40.5494 101.722 40.5494C101.654 40.5494 101.629 40.5306 101.629 40.4869C101.629 40.4306 101.691 40.4181 101.778 40.4181C102.083 40.4056 102.362 40.4181 102.486 40.4181C102.548 40.4181 102.772 40.3868 103.058 40.3743C103.132 40.3743 103.194 40.3743 103.194 40.4306C103.194 40.4744 103.163 40.4931 103.089 40.4994C103.033 40.4994 102.983 40.4994 102.915 40.5244C102.753 40.5869 102.71 40.7369 102.71 41.1308V45.6009C102.71 45.7572 102.685 45.8197 102.629 45.8259C102.567 45.8259 102.492 45.7572 102.43 45.6821C102.058 45.2758 101.294 44.3818 100.673 43.6815C100.021 42.9438 99.35 42.0998 99.2444 41.9685H99.2258L99.3251 44.9507L99.3189 44.9569Z" fill="white"/>
<path d="M38.4802 60.3739C22.985 62.1119 9.13549 49.9333 9.32801 32.7158C9.52054 15.2106 24.0594 2.35687 39.9149 4.06987C46.5415 4.78883 52.2179 7.96476 56.2982 12.5098C51.6155 6.02669 44.3305 1.2878 35.5489 0.224992C17.1719 -2.00066 0.130221 12.5161 -0.00019961 32.597C-0.130621 52.2965 16.1782 65.9693 34.0645 63.7686C41.9954 62.7933 48.8829 58.8422 53.814 53.328C49.684 57.1042 44.4051 59.7174 38.4802 60.3801V60.3739Z" fill="url(#paint0_linear_1_875)"/>
<path d="M116.019 20.9248H115.721V20.8185H116.441V20.9248H116.143V21.8001H116.013V20.9248H116.019Z" fill="white"/>
<path d="M117.366 21.3625C117.36 21.2249 117.348 21.0624 117.354 20.9373C117.323 21.0499 117.279 21.1749 117.23 21.3062L117.056 21.7813H116.963L116.807 21.3125C116.764 21.1749 116.72 21.0499 116.696 20.9311C116.696 21.0561 116.683 21.2187 116.677 21.3625L116.652 21.7813H116.534L116.602 20.7998H116.764L116.932 21.2749C116.969 21.3937 117.006 21.5 117.031 21.6063C117.056 21.5063 117.087 21.4 117.137 21.2749L117.31 20.7998H117.472L117.534 21.7813H117.41L117.385 21.35L117.366 21.3625Z" fill="white"/>
<path d="M116.652 22.6629C115.913 22.6629 115.305 22.0565 115.305 21.3062C115.305 20.556 115.907 19.9496 116.652 19.9496C117.398 19.9496 118 20.556 118 21.3062C118 22.0565 117.398 22.6629 116.652 22.6629ZM116.652 20.0809C115.982 20.0809 115.429 20.631 115.429 21.3125C115.429 21.9939 115.975 22.5441 116.652 22.5441C117.329 22.5441 117.876 21.9939 117.876 21.3125C117.876 20.631 117.329 20.0809 116.652 20.0809Z" fill="white"/>
</g>
<defs>
<linearGradient id="paint0_linear_1_875" x1="28.1486" y1="-0.000305176" x2="28.1486" y2="64.0008" gradientUnits="userSpaceOnUse">
<stop stop-color="#67C3EC"/>
<stop offset="1" stop-color="#006FBA"/>
</linearGradient>
<clipPath id="clip0_1_875">
<rect width="118" height="64" fill="white"/>
</clipPath>
</defs>
</svg>
