<svg width="185" height="135" viewBox="0 0 185 135" fill="none" xmlns="http://www.w3.org/2000/svg">
<g opacity="0.2" clip-path="url(#clip0_1_832)">
<path d="M84.6153 99.0748C84.6153 118.916 65.6747 135 42.3087 135C18.9427 135 0 118.916 0 99.0748C0 49.012 54.6104 0 54.6104 0L63.7864 7.91131C63.7864 7.91131 38.1446 30.6276 26.6284 65.6989C31.4745 64.0553 36.7683 63.1495 42.3066 63.1495C65.6726 63.1495 84.6132 79.2333 84.6132 99.0748H84.6153Z" fill="white"/>
<path d="M185 99.0748C185 118.916 166.059 135 142.693 135C119.327 135 100.387 118.916 100.387 99.0748C100.385 49.012 154.997 0 154.997 0L164.173 7.91131C164.173 7.91131 138.531 30.6276 127.015 65.6989C131.861 64.0553 137.155 63.1495 142.693 63.1495C166.059 63.1495 185 79.2333 185 99.0748Z" fill="white"/>
</g>
<defs>
<clipPath id="clip0_1_832">
<rect width="185" height="135" fill="white"/>
</clipPath>
</defs>
</svg>
